<?xml version="1.0" standalone="no"?><!DOCTYPE svg PUBLIC "-//W3C//DTD SVG 1.1//EN" "http://www.w3.org/Graphics/SVG/1.1/DTD/svg11.dtd"><svg t="1772381368191" class="icon" viewBox="0 0 1024 1024" version="1.1" xmlns="http://www.w3.org/2000/svg" p-id="2477" xmlns:xlink="http://www.w3.org/1999/xlink" width="200" height="200"><path d="M764.98356 420.495308c14.30551-33.885275 21.602766-69.793551 21.602766-106.857828s-7.297255-73.044803-21.602766-106.857829c-13.79976-32.729274-33.596275-62.062795-58.811543-87.278063-25.215268-25.215268-54.54879-45.011783-87.278064-58.811544-33.885275-14.377761-69.865801-21.675016-106.930078-21.675015S438.919071 46.312284 405.106047 60.617794c-32.729274 13.79976-62.062795 33.596275-87.278064 58.811543-25.215268 25.215268-45.011783 54.54879-58.811543 87.278064-14.30551 33.885275-21.602766 69.793551-21.602766 106.857829s7.297255 73.044803 21.602766 106.857828c13.79976 32.729274 33.596275 62.062795 58.811543 87.278064 25.215268 25.215268 54.54879 45.011783 87.278064 58.811543 3.395752 1.445001 6.791505 2.817752 10.259507 4.118253-21.602766 5.202004-42.772031 12.210259-63.363296 20.880265-48.985536 20.735765-92.913568 50.358287-130.700346 88.072815-37.786778 37.786778-67.409299 81.71481-88.072814 130.700345-21.458266 50.719537-32.295774 104.545827-32.295774 160.033868h0.21675c0 7.875256 6.358005 14.23326 14.233261 14.23326 7.875256 0 14.23326-6.358005 14.23326-14.23326h0.21675c0-51.586538 10.115007-101.655824 30.056022-148.762859 19.218514-45.517533 46.818034-86.411063 81.93156-121.524589 35.113526-35.113526 76.007056-62.640796 121.524589-81.93156 47.107035-19.941015 97.176321-30.056022 148.762859-30.056022 37.064277 0 73.044803-7.297255 106.857828-21.602766 32.729274-13.79976 62.062795-33.596275 87.278064-58.811543 25.070768-25.070768 44.867283-54.40429 58.739293-87.133564zM511.963875 559.28766c-65.603048 0-127.304593-25.576519-173.689127-71.961053s-71.961053-108.086079-71.961053-173.689127c0-65.603048 25.576519-127.304593 71.961053-173.689127S446.360827 67.91505 511.963875 67.91505c65.603048 0 127.304593 25.576519 173.689127 71.961052 46.384534 46.384534 71.961053 108.086079 71.961053 173.689128 0 65.603048-25.576519 127.304593-71.961053 173.689127-46.384534 46.456784-108.086079 72.033303-173.689127 72.033303zM923.066676 968.80096c-0.289-73.478304-20.157765-145.439357-57.583292-208.296903-36.558527-61.484795-88.723065-112.565582-150.930361-147.895858v0.07225c-2.095252-1.228251-4.551753-1.878501-7.080505-1.878502-7.947506 0-14.377761 6.430255-14.37776 14.377761 0 5.346504 2.962252 10.042757 7.297255 12.499259v0.07225c57.800042 32.801524 106.352078 80.342059 140.309603 137.491851 34.752275 58.378043 53.248289 125.353842 53.465039 193.702392-0.07225 0.50575-0.07225 0.939251-0.07225 1.445001 0 8.019756 6.502505 14.522261 14.52226 14.52226s14.522261-6.502505 14.522261-14.52226c0.07225-0.50575 0-1.083751-0.07225-1.589501z" p-id="2478" fill="#ffffff"></path></svg>